<?xml version="1.0" standalone="no"?>
<!DOCTYPE svg PUBLIC "-//W3C//DTD SVG 20010904//EN"
 "http://www.w3.org/TR/2001/REC-SVG-20010904/DTD/svg10.dtd">
<svg version="1.0" xmlns="http://www.w3.org/2000/svg"
 width="180.000000pt" height="180.000000pt" viewBox="0 0 180.000000 180.000000"
 preserveAspectRatio="xMidYMid meet">
<metadata>
Created by potrace 1.14, written by Peter Selinger 2001-2017
</metadata>
<g transform="translate(0.000000,180.000000) scale(0.100000,-0.100000)"
fill="#000000" stroke="none">
<path d="M484 1781 c-33 -20 -61 -79 -50 -106 4 -11 -2 -15 -19 -15 -14 0 -33
-9 -43 -20 -9 -12 -45 -37 -79 -56 -34 -19 -65 -39 -68 -43 -3 -5 26 -27 65
-48 l70 -39 -70 -40 c-38 -21 -70 -42 -70 -45 0 -3 31 -23 69 -44 l69 -39 -69
-40 c-38 -22 -69 -42 -69 -45 0 -3 29 -22 65 -41 36 -19 65 -37 65 -40 0 -3
-29 -23 -65 -43 -36 -21 -65 -40 -65 -42 0 -2 29 -21 65 -42 36 -20 65 -40 65
-43 0 -3 -27 -20 -60 -38 -33 -18 -62 -37 -65 -42 -3 -5 25 -26 61 -46 75 -42
76 -39 -18 -92 -27 -15 -48 -29 -48 -33 0 -3 33 -24 74 -47 l74 -42 251 0 251
0 0 310 0 310 343 0 c253 0 346 3 355 12 7 7 12 29 12 50 l0 38 -195 0 c-167
0 -195 2 -195 15 0 13 28 15 195 15 l195 0 0 138 c0 94 -4 142 -12 150 -9 9
-104 12 -365 12 l-353 0 0 36 c0 28 -8 44 -34 70 -43 43 -100 47 -142 10 l-28
-23 -34 23 c-42 29 -86 30 -128 5z m116 -65 c0 -28 -28 -42 -47 -23 -19 19 -5
47 23 47 19 0 24 -5 24 -24z m197 8 c3 -8 -2 -23 -11 -32 -15 -15 -17 -15 -32
0 -21 21 -11 48 16 48 11 0 23 -7 27 -16z m691 -127 c2 -12 -3 -17 -17 -17
-12 0 -21 6 -21 13 0 31 32 34 38 4z m70 0 c2 -12 -3 -17 -17 -17 -12 0 -21 6
-21 13 0 31 32 34 38 4z"/>
<path d="M453 582 l-103 -3 0 -105 c0 -137 4 -144 80 -144 l60 0 0 -115 0
-115 45 0 45 0 0 115 0 115 30 0 30 0 0 -115 0 -115 45 0 45 0 0 115 0 115 59
0 c33 0 62 4 66 10 3 5 6 62 7 126 l2 116 -155 1 c-85 1 -200 1 -256 -1z"/>
<path d="M502 38 c3 -30 6 -33 38 -33 32 0 35 2 36 33 2 31 0 32 -38 32 -38 0
-39 -1 -36 -32z"/>
<path d="M632 38 c3 -30 6 -33 38 -33 32 0 35 2 36 33 2 31 0 32 -38 32 -38 0
-39 -1 -36 -32z"/>
</g>
</svg>
